# xmcd
#
# Track frame offsets: 
#        150
#        13552
#        31192
#        50094
#        69699
#        86764
#        104362
#        118608
#        132371
#        149675
#        165144
#        182790
#        198043
#        215414
#        229389
#        243128
#        258756
#        275154
#
# Disc length: 3851 seconds
#
# Revision: 1
# Processed by: cddbd v1.5.2PL0 Copyright (c) Steve Scherf et al.
# Submitted via: ExactAudioCopy v0.99pb5
#
DISCID=020f0912
DTITLE=GUNTER GABRIEL - GOLDEN STARS
DYEAR=2000
DGENRE=Country
TTITLE0=Hey Boss, Ich Brauch Mehr Geld (1974)
TTITLE1=Komm Unter Meine Decke (1976)
TTITLE2=Intercity Linie Nr.4 (1975)
TTITLE3=Er Ist Ein Kerl (30 Tonner Diesel) (1974)
TTITLE4=Hey, Yvonne (1974)
TTITLE5=Ich Bin CB-Funker (1978)
TTITLE6=Deutschland Ist ... (1982)
TTITLE7=Papa Trinkt Bier (1977)
TTITLE8=Mit Dem Hammer In Der Hand (Das Lied Vom Einfachen Mann) (1975
TTITLE8=)
TTITLE9=Ich Werd' Gesucht (1973)
TTITLE10=Asphalt Fieber (1977)
TTITLE11=Lucille (1977)
TTITLE12=Hallo Mein Freund (1973)
TTITLE13=Mein Laster Ist Mein Laster (1983)
TTITLE14=Hinrichs Nest (Das Lied Vom Froschkönig) (1977)
TTITLE15=Hurra, Wir Leben Noch (1982)
TTITLE16=Willy Klein, Der Fernsehmann (1977)
TTITLE17=Ein Ehrenwertes Haus (1977)
EXTD=YEAR: 2000
EXTT0=
EXTT1=
EXTT2=
EXTT3=
EXTT4=
EXTT5=
EXTT6=
EXTT7=
EXTT8=
EXTT9=
EXTT10=
EXTT11=
EXTT12=
EXTT13=
EXTT14=
EXTT15=
EXTT16=
EXTT17=
PLAYORDER=
